Original txt:
Journey
Festival de Viña del Mar, Chile
2008-02-21

Ntsc Dvd - Pro Shot
Taper: The Stephani Cousins
Source: Tv Rip (Not HDTV). NOT FROM PPV.
Captured using a Samsung Dvd Recorder in SP Mode.

Audio: See Notes

Setlist

01 Intro

02 Separates Ways

03 Rubicon

04 Stone In Love

05 Ask The Lonely

06 Wheel In The Sky

07 Lights

08 Piano Solo

09 Open Arms

10 Only The Young

11 Chain Reaction

12 Edge Of The Blade

13 Faithfully

14 Don´t Stop Believin´

Encore Break One

15 Anyway You Want It

Encore Break Two (Seven Minute Long)

16 Lovin´, Touchin´, Squeezin´



Notes:

This is the firts show with new leading singer, Arnel Pineda.

In the firts couple of song, is hard to hear the keyboards and the voice. This is basically
because of the lousy jobs of the local crew on making the audio mix. This problem is fixed
after a few songs.

The chilean host talk way too much after the second set, and is really annoying.That´s why
we made separate tracks for all the parts were he talks. We would like to take this oportunity
to say that most people here in Chile are not like this, and that this guy is mentally ill.

Excellent show. Arnel is an amazing singer. Hope you guys enjoy it as much as we did.

THIS RELEASE IS BROUGHT TO YOU BY THE STEPHANI COUSINS!!!

Excellent quality
TV Broadcast

Info First VOB
NTSC
Artwork, original txt and fingerprints included

General
Complete name : F:\Journey Vina del Mar Chile 2008 DVD PRO\VIDEO_TS\VTS_01_1.VOB
Format : MPEG-PS
File size : 1 023 MiB
Duration : 32mn 49s
Overall bit rate : 4 357 Kbps

Video
ID : 224 (0xE0)
Format : MPEG Video
Format version : Version 2
Format profile : Main@Main
Format settings, BVOP : Yes
Format settings, Matrix : Custom
Format settings, GOP : M=3, N=15
Duration : 32mn 49s
Bit rate mode : Variable
Bit rate : 4 014 Kbps
Maximum bit rate : 8 040 Kbps
Width : 720 pixels
Height : 480 pixels
Display aspect ratio : 4:3
Frame rate : 29.970 fps
Standard : NTSC
Color space : YUV
Chroma subsampling : 4:2:0
Bit depth : 8 bits
Scan type : Interlaced
Scan order : Top Field First
Compression mode : Lossy
Bits/(Pixel*Frame) : 0.388
Stream size : 942 MiB (92%)

Audio
ID : 189 (0xBD)-128 (0x80)
Format : AC-3
Format/Info : Audio Coding 3
Mode extension : CM (complete main)
Muxing mode : DVD-Video
Duration : 32mn 49s
Bit rate mode : Constant
Bit rate : 256 Kbps
Channel(s) : 2 channels
Channel positions : Front: L R
Sampling rate : 48.0 KHz
Bit depth : 16 bits
Compression mode : Lossy
Delay relative to video : -66ms
Stream size : 60.1 MiB (6%)